<svg width="14" height="15" viewBox="0 0 14 15" fill="none" xmlns="http://www.w3.org/2000/svg">
<path d="M13.107 10.5706C12.162 9.77188 11.6201 8.60438 11.6201 7.3675V5.625C11.6201 3.42563 9.98637 1.605 7.87012 1.3V0.625C7.87012 0.279375 7.59012 0 7.24512 0C6.90012 0 6.62012 0.279375 6.62012 0.625V1.3C4.50324 1.605 2.87012 3.42563 2.87012 5.625V7.3675C2.87012 8.60438 2.32824 9.77188 1.37762 10.5756C1.13449 10.7838 0.995117 11.0863 0.995117 11.4063C0.995117 12.0094 1.48574 12.5 2.08887 12.5H12.4014C13.0045 12.5 13.4951 12.0094 13.4951 11.4063C13.4951 11.0863 13.3557 10.7838 13.107 10.5706Z" fill="#F2C94C"/>
<path d="M7.24522 15C8.3771 15 9.32397 14.1931 9.54147 13.125H4.94897C5.16647 14.1931 6.11335 15 7.24522 15Z" fill="#F2C94C"/>
</svg>
